<?xml version="1.0" encoding="UTF-8"?>
<svg id="_Слой_1" data-name="Слой_1" xmlns="http://www.w3.org/2000/svg" version="1.1" viewBox="0 0 1500 1500">
  <!-- Generator: Adobe Illustrator 29.8.2, SVG Export Plug-In . SVG Version: 2.1.1 Build 3)  -->
  <defs>
    <style>
      .st0 {
        fill: #0b6aec;
      }
    </style>
  </defs>
  <path d="M492.26,759.33c0-122.42,85.82-225.19,200.43-251.31V246.55h-203.13v114.62h88.52v67.94c-115.98,60.61-196.22,180.55-200.26,319.26h-.17v505.02h111.91v-228.23c54.28,53.17,124.68,89.91,203.13,102.1v-116.65c-114.62-26.12-200.43-128.89-200.43-251.31v.03Z"/>
  <path d="M1122.35,759.33c0-143.33-81.41-267.98-200.43-330.21v-67.94h88.52v-114.62h-203.13v261.46c114.62,26.12,200.43,128.89,200.43,251.31s-85.82,225.19-200.43,251.31v116.65c78.29-12.16,148.57-48.76,202.8-101.76v227.92h111.91v-479.09c.2-4.99.31-9.98.31-15l.03-.03Z"/>
  <path class="st0" d="M791.08,577.24c-19.77-4.99-35.27-4.57-41.23-4.57-103.1,0-186.66,83.56-186.66,186.66s83.56,186.66,186.66,186.66,186.66-83.56,186.66-186.66c0-94.88-76.36-164.63-145.42-182.09h0ZM680.01,739.64c-26.99,0-48.87-21.89-48.87-48.87s21.89-48.87,48.87-48.87,48.87,21.89,48.87,48.87-21.89,48.87-48.87,48.87Z"/>
</svg>